<svg id="Слой_1" data-name="Слой 1" xmlns="http://www.w3.org/2000/svg" viewBox="0 0 3265.83 678.03"><defs><style>.cls-1{fill:#f8a532;}.cls-2{fill:#e26215;}.cls-3{fill:#a94b23;}.cls-4{fill:#574b65;}.cls-5{fill:#364563;}.cls-6{fill:#5f2e29;}.cls-7{fill:#2f374e;}</style></defs><path class="cls-1" d="M463.59,421c.08,3,9.92,4,38.27,4s38.19-1,38.28-4c.27-9.63-36.62-266.35-38.28-266.35S463.31,411.32,463.59,421Zm54.25-19.09c-.05,2.64-5.42,4-16,4s-15.92-1.34-16-4c-.2-9.87,14.31-107.33,16-107.33S518,392,517.84,401.87Z" transform="translate(-5.74 -4.97)"/><path class="cls-1" d="M2512.87,9.92c-6.15,6.15-11.89,6.15-9.53,0,1.59-4.14-6.35-4.77-60.1-4.77H2381.3l.82,338.69h0l.82,338.69h249.64V561.69h-124V399.5h124V281.83h-62c-37.89,0-62-1.2-62-3.08,0-1.7-2.13-2.26-4.74-1.26-5.29,2-9.77-6.09-6.39-11.57,1.55-2.5,3.43-2.43,6.64.24,3.84,3.19,4.49-6.65,4.49-68.22V126h124V5.15h-57.47C2528.26,5.15,2516.76,6,2512.87,9.92ZM2613.5,64l-1.59,41.35-61.22.86-61.22.87V300.9h124v79.51h-124V580.77h59.82c49.48,0,60.88.86,66,5,4.38,3.53,5,5.45,2.2,6.63s-4,11.6-4,36.37h0v34.72h-209.9V24.22h42.74c25.07,0,43.56-1.31,44.71-3.18s4.12-3.18,6.74-3.18,3.83,1.52,2.68,3.38c-1.45,2.35,15.64,3.08,56.26,2.39l58.35-1Z" transform="translate(-5.74 -4.97)"/><path class="cls-1" d="M3180.13,8.74c-10.35-2.22-53.2-3.59-112-3.59h-95.25V344.07h0V683l107.33-1.11c104.1-1.07,107.91-1.33,126.23-8.63,24.82-9.88,46.14-31.17,56.18-56.09l7.61-18.9,1-241.7c.7-172.87-.06-247.1-2.68-260.67C3259.28,48,3230.43,19.53,3180.13,8.74Zm78.95,359.88c-6.19,1.62-6.35,4.34-6.35,103.57,0,63.17-1.36,108.32-3.57,118.76-8.68,41-29.67,61.39-71.06,69h0c-10.44,1.93-55,3.47-100.47,3.47h-81.71l-2-10.17c-2.64-13.2-2.62-605.83,0-619l2-10H3076c44.06,0,88.6,1.55,99,3.45,33.51,6.14,58.83,24.51,68.39,49.6,7.76,20.38,9.21,45.13,9.39,160.16.19,117.66.35,120.71,6.42,120.71C3267.38,358.16,3267.28,366.48,3259.08,368.62Z" transform="translate(-5.74 -4.97)"/><path class="cls-1" d="M196.56,396l-7.8-7.8c-7.35-7.35-9.88-7.81-42.94-7.81H110.7V480.59h0V580.77h36.57c53,0,49.29,7.49,49.29-98.73ZM175.89,560.1l-23.06.93-23.05.94V399.22l23.05.93,23.06.94Z" transform="translate(-5.74 -4.97)"/><path class="cls-1" d="M186.05,293.23l8.92-7.67V202.93c0-102.82,3.42-96-48.19-96H110.7v97h0v97h33.21C174.44,300.91,177.85,300.29,186.05,293.23ZM129.78,126H151.7c17.05,0,22.35,1.11,23.85,5,3.37,8.79,2.16,138.07-1.36,144.65h0c-2.74,5.11-6.78,6.16-23.85,6.16H129.78Z" transform="translate(-5.74 -4.97)"/><path class="cls-1" d="M2177.81,100.55c0,61.49,1.13,95.41,3.18,95.41,1.75,0,3.18,2.23,3.18,5s-1.43,4.07-3.18,3c-2.11-1.3-3.18,78.94-3.18,238.33V682.53h31.41c24.28,0,32.33-1.1,35.44-4.85,3.61-4.35,4.58-4.35,9.39,0,3.67,3.33,12,4.85,26.57,4.85h21.22V5.15h-124Zm78.31-89c4.22,0,4.44.87,1.2,4.78-2.18,2.62-4.5,4.77-5.16,4.77s-1.2-2.15-1.2-4.77A5,5,0,0,1,2256.12,11.5Zm-64,314.85c4.17,0,4.77-17.12,4.77-135,0-90.72-1.09-135.65-3.33-137s-2.25-3.37-.28-5.76c1.68-2,3.53-8,4.13-13.23,1.05-9.35,1.47-9.56,21-10.49,14.42-.68,19.87-2.16,19.87-5.37,0-5,5.83-9.59,8.62-6.8,1,1,0,4-2.19,6.68-3.54,4.26-1.47,4.85,17,4.85h21.06V663.45h-85.87V499.67c0-143.46-.59-163.78-4.77-163.78a4.77,4.77,0,0,1,0-9.54Zm-5.07,79.51c1.59,0,2.14,2.86,1.22,6.36s-2.21,6.36-2.88,6.36-1.22-2.86-1.22-6.36S2185.47,405.86,2187.05,405.86Z" transform="translate(-5.74 -4.97)"/><path class="cls-1" d="M279.31,343.43c-3.78-5.95-3.47-7.85,2.59-15.54,14.54-18.49,16.43-34.16,16.39-136.48-.05-115.94-3-131.94-29.11-156.49C241.55,8.92,220.92,5.26,102,5.2l-96.21,0V344.07h0V683l107.33-1.09c100.63-1,108.37-1.51,123.94-7.84,25.73-10.45,40.67-24.15,52.46-48.08l10.44-21.22V378.83l-8.14-14.31C287.28,356.65,281.68,347.16,279.31,343.43Zm6.95,89.86c-2.43-1.5-3.74,22.42-4.43,81.42l-1,83.55-9,18.31c-9.86,20.07-22.1,31.13-43.7,39.49h0c-11.87,4.59-28.93,5.64-108.7,6.67L24.82,664V24.23l80.3,0c90.42,0,114.68,2.77,137.55,15.59C255.35,47,260.5,52.51,268.11,67.27l9.54,18.5,1,98.28c1.13,114.93,0,122-24.09,144.68-7.88,7.44-12.81,13.52-10.95,13.52,6.22,0,23.16,16.57,29.35,28.71,3.38,6.61,7.53,19.67,9.24,29s4.11,21.15,5.33,26.22C289,432.49,288.61,434.74,286.26,433.29Z" transform="translate(-5.74 -4.97)"/><path class="cls-1" d="M2944.24,561.7c-3.49,0-6.36,1.72-6.36,3.82,0,3-.84,3-3.81,0-2.67-2.67-19.93-3.82-57.25-3.82H2823.4V5.16h-124V343.85h0V682.55H2950.6V622.12C2950.6,563.82,2950.38,561.7,2944.24,561.7Zm-14.7,91.82h0l-2,9.93h-209l-.85-248.85c-.47-136.87-.13-280.34.74-318.82l1.59-70,42.14-.88,42.14-.89V580.77h123.23l2,9.94c1.09,5.47,2,19.6,2,31.4s-.9,25.94-2,31.41Z" transform="translate(-5.74 -4.97)"/><path class="cls-1" d="M1683.28,280.24l-.85-77.12-.85-77.12H1804.9l2.16-24.78c1.19-13.62,1.92-40.81,1.63-60.42l-.53-35.65H1557.62l.07,338.69h0l.07,338.69H1808.9l0-43.73c0-24-.93-51.24-2-60.42l-2-16.7H1681.69V399.5h123.1l2-24.33c1.14-13.39,2.06-39.83,2.06-58.77V282l-62.81-.86Zm103.36,100.17h-124V580.77h57c31.34,0,59.24.87,62,1.93,4.21,1.62,5,8.34,5,41.34h0v39.41h-209.9l-.11-136c-.26-326.55.42-498,2-500.55.92-1.5,48.11-2.73,104.85-2.73h103.17v82.69h-124v194h124Z" transform="translate(-5.74 -4.97)"/><path class="cls-1" d="M1408.23,5.14H1282.61v338.7h0v338.7h249.64V561.69h-124ZM1294,444c-3.61,0-6.73-8-6.6-17,.1-6.74.2-6.76,4.77-.72,2.57,3.4,4.67,8.76,4.67,11.93S1295.6,444,1294,444Zm158.69,139.37,60.64,1.05-.89,38.71h0l-.89,38.71-104.15.84-104.15.84V24.23h22.65c19.78,0,22.15-.61,18.7-4.77-2.86-3.44-2.94-4.78-.29-4.78,2,0,4.49,2.15,5.5,4.78,1.31,3.42,6.67,4.77,19,4.77H1386l0,274.29c0,167,1.22,276.16,3.06,279.06C1391.54,581.49,1403.09,582.54,1452.73,583.39Z" transform="translate(-5.74 -4.97)"/><path class="cls-1" d="M967.76,5.13l.93,60.43.93,60.43h79.24V404.26h0V682.53h34.72c24.67,0,35.26-1.15,36.58-4,1.48-3.17,2.22-3.17,3.7,0,1.26,2.69,10,4,27,4h25.17V126h82.69V5.14h-291Zm268.73,101.78h-82.68V385.18h0V663.45h-82.69V106.91H988.43V24.22h248.06Z" transform="translate(-5.74 -4.97)"/><path class="cls-1" d="M501.86,5.15c-69.82,0-69.84,0-71.51,7.15C428.56,20,324.85,646.56,321.65,669h0l-1.93,13.52h64c58.89,0,64-.45,64-5.57,0-3.06,4.49-38.84,10-79.5l10.12-73.94h67.92l10.12,73.94c5.57,40.66,10.09,76.44,10,79.5-.06,5.12,5.06,5.57,63.54,5.57,51.54,0,63.6-.82,63.6-4.33,0-4.77-107.08-654.41-109.76-665.91C571.7,5.15,571.68,5.15,501.86,5.15Zm116.43,658.3H575.72l-1.81-10.33c-1-5.69-5.46-36.81-9.93-69.17s-8.89-63.49-9.83-69.17l-1.69-10.34H451.27l-1.7,10.34c-.93,5.68-5.35,36.81-9.83,69.17s-8.94,63.48-9.93,69.17h0L428,663.45H385.43c-23.42,0-42.58-.64-42.58-1.43,0-2.17,101.68-619,103.7-629l1.75-8.74H555.64l1.82,10.34c3.52,20,103.41,626,103.41,627.45C660.87,662.81,641.71,663.45,618.29,663.45Z" transform="translate(-5.74 -4.97)"/><path class="cls-1" d="M660.87,126h82.68V404.26h0V682.53h124V126h82.69V5.14H660.87ZM680,24.15,804.78,25l124.82.83v79.51l-40.53.89-40.53.89-.82,277.38h0l-.81,277.38-42.14.89-42.14.89V106.91H680Z" transform="translate(-5.74 -4.97)"/><path class="cls-1" d="M1872.51,343.84h0V682.54h127.21v-283h124V281.83h-124V126h124V5.15H1872.51Zm22.27-319.7,104.15.84,104.15.84v79.51l-60.83.86-60.83.86-2.33,83.8c-1.28,46.09-1.33,89.71-.11,96.93,2.13,12.63,2.67,13.13,14,13.13,6.5,0,13.53-1.72,15.63-3.81,3-3,4.66-3,7.63,0,2.59,2.58,17.48,3.81,46.21,3.81h42.4l-.9,39-.89,39-61.22.86-61.22.86-.47,8.68c-.26,4.77-.1,38.73.35,75.46s-.24,96.48-1.54,132.77h0l-2.36,66h-81.84Z" transform="translate(-5.74 -4.97)"/><path class="cls-1" d="M3162.58,163.2c4.4,1.69,4.88-1,3.75-21.19-1.85-32.71-5.3-35.09-50.81-35.09h-34.74l.36,57c.28,45.2,1.21,56.72,4.46,55.48,5.46-2.1,9.47,8.71,4.4,11.84-2.16,1.33-5.07,1.72-6.47.86S3081,309.36,3081,405.67h0v175.1h35.13c33.05,0,35.59-.46,42.93-7.81l7.81-7.81V179.49l-6.87-5.56C3152.52,167.88,3154.4,160.06,3162.58,163.2ZM3144,557.87h0c-2.16,2.16-12.51,3.81-23.85,3.81h-20V126h20c11.34,0,21.69,1.66,23.85,3.82,2.89,2.89,3.82,54.77,3.82,214S3146.85,555,3144,557.87Z" transform="translate(-5.74 -4.97)"/><path class="cls-2" d="M189.3,387.67c-4.63-4.64-12.33-5.87-42.14-6.74l-36.46-1.07V480.31h0V580.77h36c53.57,0,50.38,6.55,49.2-101.23C195.07,401.84,194.41,392.79,189.3,387.67ZM175.89,560.09l-23.06.94-23.05.93V399.21l23.05.94,23.06.93Z" transform="translate(-5.74 -4.97)"/><path class="cls-2" d="M279.31,343.43c-3.78-5.95-3.47-7.85,2.59-15.54,14.54-18.49,16.43-34.16,16.39-136.48-.05-115.94-3-131.94-29.11-156.49C241.55,8.92,220.92,5.26,102,5.2l-96.21,0V344.07h0V683l107.33-1.09c100.63-1,108.37-1.51,123.94-7.84,25.73-10.45,40.67-24.15,52.46-48.08l10.44-21.22V378.83l-8.14-14.31C287.28,356.65,281.68,347.16,279.31,343.43Zm8.06,91.05c-3.81,0-4.72,13.4-5.55,81.89l-1,81.89-9.54,19.08C260,640,244.88,651.56,217.36,658.6h0c-14.71,3.76-38.37,4.85-105.74,4.85H24.84V24.23h81.63c44.9,0,90.62,1.57,101.62,3.48,28.75,5,51.19,19.42,61.43,39.45l8.13,15.9V189.6c0,103.77-.18,106.88-7,119.65-3.86,7.22-11.41,16.81-16.78,21.33l-9.76,8.21,14.16,13c14.11,13,24.16,33.82,24.16,50a35.89,35.89,0,0,0,3.82,14.54C292,426.9,292.49,434.48,287.37,434.48Z" transform="translate(-5.74 -4.97)"/><path class="cls-2" d="M3269.73,550.56c0,10.5.61,14.41,1.32,8.69a84.9,84.9,0,0,0,0-19.08C3270.29,535.39,3269.7,540.07,3269.73,550.56Z" transform="translate(-5.74 -4.97)"/><path class="cls-2" d="M3270.93,347.83a26.11,26.11,0,0,0,0-11.13c-.8-3.06-1.45-.56-1.45,5.56S3270.13,350.89,3270.93,347.83Z" transform="translate(-5.74 -4.97)"/><path class="cls-2" d="M505,171.42c0-1.19-1.5-.67-3.35,1.18-2.73,2.73-38,232.81-38,247.9h0c0,3.54,7,4.44,34.19,4.4,18.8,0,36-1.19,38.18-2.58,3.12-2,.18-29.29-13.52-125.62C512.92,229,505,172.62,505,171.42Zm-3.18,234.44c-10.55,0-15.92-1.33-16-4-.2-9.88,14.31-107.34,16-107.34S518,392,517.84,401.89C517.79,404.52,512.42,405.86,501.86,405.86Z" transform="translate(-5.74 -4.97)"/><path class="cls-2" d="M2503.47,215.05c0,21.87.51,30.81,1.13,19.88s.62-28.82,0-39.76S2503.47,193.19,2503.47,215.05Z" transform="translate(-5.74 -4.97)"/><path class="cls-2" d="M2502.87,151.45h0l.59,20.67,1.1-23.06,1.1-23.06h126.93V5.16h-55.66c-51.41,0-56.13.48-62,6.36-6.36,6.36-6.36,6.36,48.5,6.4,30.17,0,56.86,1.32,59.3,2.87,3.14,2,4.9,12.23,6,34.88l1.54,32.08-10,10.25-10,10.26-45.93,2.26c-25.25,1.24-48.68,3.13-52.06,4.2-7.89,2.51-10.07,11.09-9.34,36.73Z" transform="translate(-5.74 -4.97)"/><path class="cls-2" d="M113.08,299.05h0c1.31,1.31,17,1.91,34.88,1.32,37.83-1.23,41.84-3.61,45.7-27.08,3.39-20.59,3.31-126.25-.1-143.94-3.93-20.34-8.48-22.45-48.49-22.45H110.69v94.88c0,52.18,1.08,96,2.39,97.26Zm16.69-173H151.7c17.05,0,22.35,1.11,23.85,5,3.37,8.8,2.16,138.07-1.36,144.65h0c-2.74,5.1-6.78,6.15-23.86,6.15H129.77Z" transform="translate(-5.74 -4.97)"/><path class="cls-2" d="M3211.41,658.41c-13.33,6.2-20.79,6.72-109.43,7.66-52.32.56-98.31.21-102.21-.76-4.09-1-7.93-5.14-9.08-9.7-2.52-10.07-2.58-613.21-.05-623.28,1-4.11,5-8.46,8.77-9.66,12.46-3.94,133.43-5.55,166.34-2.21,39.72,4,62,13.62,81,35l13.34,14.93-7.66-13.9c-13.36-24.23-36.35-39.06-72.4-46.71-15.35-3.25-46.35-4.49-113.36-4.53l-92.23,0V343.86h0V682.55l93.81,0c99.32-.06,123.46-2.57,148.78-15.49,26.26-13.4,46.12-42.69,49.83-73.5l1.72-14.31-4.25,14.31C3254.35,627.25,3239.63,645.29,3211.41,658.41Z" transform="translate(-5.74 -4.97)"/><path class="cls-2" d="M1408.22,5.16H1282.6l.84,209.78c.69,171.19,1.6,209.48,5,208.18,4.59-1.76,12.85,13.21,9.91,18-3.13,5.07-7.89,3.22-10.88-4.22-1.8-4.48-3,34.57-3.08,104.51-.11,61.4-1.11,118.29-2.22,126.41h0l-2,14.76h252.1V561.7h-124Zm42.15,576.34,61.21.86.89,40.55.89,40.55h-23.69c-13,0-25.59.37-27.92.82s-38.94.43-81.36-.06l-77.12-.87V24.24h22.49c20.44,0,22-.45,17.49-5-7-7-6.23-8.15,3-4,4.38,2,8,4.75,8,6.13s7.52,2.93,16.7,3.46l16.69,1,.82,277.4.81,277.41Z" transform="translate(-5.74 -4.97)"/><path class="cls-2" d="M2503.89,285.81c0,3,14.92,4.38,59.75,5.57,48.43,1.29,60.32,2.49,62.76,6.36,1.66,2.62,3,17.43,3.06,32.9,0,23.88-1,29.65-6.95,38.16-3.85,5.52-8.26,10.91-9.8,12s-23.58,3-49,4.19c-58.71,2.85-61.57,3.87-60.91,21.62h0c.44,11.72.69,12.17,1.79,3.26,1.48-11.93-5.27-11,78-10.35l50.09.41V281.84H2506.28C2505,281.84,2503.89,283.63,2503.89,285.81Z" transform="translate(-5.74 -4.97)"/><path class="cls-2" d="M1557.78,343.85h0l.21,338.69h247.76V561.7h-124V399.5h124V281.83h-124V126h124V5.15H1557.57Zm20-318.43c.34-.32,47.53-1.07,104.88-1.67,90-.95,104.67-.45,107.28,3.67,4.15,6.57,3.89,57.23-.36,69.42l-3.46,10-118.69,1.73V296.15l61.18.86c70.16,1,63.25-2.81,65.74,36.18.82,12.79-.31,26-2.85,33.39l-4.21,12.25-57.21.87c-43.28.65-58.08,1.91-60.78,5.15-2.49,3-3.3,32.75-2.71,99.31l.84,95,58.84.83c50.75.72,59.38,1.57,62.81,6.18,4.14,5.56,5.58,56.64,2,70.11h0l-1.91,7.16H1576.77l-.22-134.36C1576.26,343.08,1577,26.11,1577.75,25.42Z" transform="translate(-5.74 -4.97)"/><path class="cls-2" d="M2508.16,541.83c-.23-10.93-1.4-42.06-2.61-69.17l-2.19-49.3-.94,68.38c-1.05,75.33-1,76.54,3.4,81.1,1.69,1.75,27.26,3.89,56.82,4.77,38.34,1.13,54.94,2.78,57.89,5.76,5,5.06,4.25,73.3-.88,78.43-4.5,4.5-211.31,4.47-215.81,0-3.19-3.19-3.69-73.87-3.46-488.93l.07-145.57,8.62-3.28c4.73-1.8,23-4,40.55-4.85,43.24-2.15,52.6-3.81,52.6-9.35,0-3.88-9.47-4.62-58.83-4.62h-58.84V343.86h0V682.55h248.06V561.7h-124Z" transform="translate(-5.74 -4.97)"/><path class="cls-2" d="M1872.53,343.85h0V682.54h125.62l-2-283h127.63V281.83H1996.56V126h127.21V5.16H1872.53Zm19.85-3.14.82-314.8,15.9-2.71c20.5-3.49,200.57-4.54,203.94-1.19,1.41,1.4,3.14,16.72,3.83,34,1.18,29.32.75,32.16-6.25,41-7.36,9.31-8.17,9.52-37.73,9.89-45.51.56-76.27,4.29-79.66,9.66-1.61,2.54-3,42.91-3,89.7l0,85.07,8.75.33c4.81.19,32,.54,60.53.8,42.23.37,52.36,1.34,54.82,5.23,1.66,2.62,3,16.74,3.06,31.37,0,21.19-1.31,29-6.63,38.48l-6.67,11.88-50.42,1.87c-27.73,1-53.15,3.34-56.5,5.14-5.8,3.1-6.21,9.78-8.44,137.74-1.29,74-3,135.55-3.79,136.86h0c-.8,1.32-21.44,2.39-45.88,2.39-32.62,0-44.84-1.06-46-4C1892.25,657.3,1891.93,513.85,1892.38,340.71Z" transform="translate(-5.74 -4.97)"/><path class="cls-2" d="M2942.34,561.7c-3.24,0-4.44,1.75-3.29,4.77,1,2.63.4,4.77-1.35,4.77s-4-2.14-5-4.77c-1.52-4-10.73-4.77-55.55-4.77h-53.72L2822.84,421l-.57-140.72-2.13,143.11c-1.77,118.93-1.39,143.91,2.23,147.83,3.39,3.67,16.25,5.09,57.91,6.4,40.07,1.25,54.95,2.84,59.1,6.27,4.9,4.08,5.29,8.59,3.38,39.72-1.19,19.31-3.55,36.55-5.25,38.3-3.37,3.47-191.28,6.41-208.39,3.26-5.52-1-10.87-4-11.89-6.69-2.5-6.51-2.76-622-.27-628.48,1.07-2.81,5.08-6,8.89-7.15,12.93-3.83,83.06-5.48,88-2.08,4.06,2.77,5,22.17,6.43,129.79L2822,277.08l.72-135.81.72-135.8-124-.16V343.93h0V682.55h248.07V622.13C2947.45,568.75,2946.85,561.7,2942.34,561.7Z" transform="translate(-5.74 -4.97)"/><path class="cls-2" d="M660.87,126h82.68V404.27h0V682.54h124V126h82.69V5.15H660.87ZM680,24.16,804.78,25l124.82.83v79.51l-40.53.89-40.53.89-.82,277.38h0l-.81,277.38-42.14.89-42.14.89-.5-274.4c-.27-150.91-.43-276.17-.35-278.36.11-3-10.09-4-40.84-4H680Z" transform="translate(-5.74 -4.97)"/><path class="cls-2" d="M3145.41,559.67c-1.36.85-12.45,1.91-24.64,2.36l-22.17.82-1.91-14.1-1.9-14.09-.48,16.54c-.37,12.74.8,17.29,5.09,19.78h0c3.06,1.78,15.47,3.29,27.57,3.34,36.64.16,33.65,15.3,33.65-170.35,0-111.73-1-160.57-3.46-162.06s-2.49-3.11,0-5.6c1.94-1.94,3.46-15.24,3.46-30.39,0-21.12-1.2-28.26-5.53-33-5.25-5.8-5.23-6.31.41-10.44,4.92-3.59,5.68-7.36,4.46-22.08-.81-9.76-3.22-19.49-5.36-21.62-5-5-46.89-4.7-51.95.36-2.85,2.85.58,3.73,14.61,3.73,34,0,30.63-24,30.63,221C3147.89,461.67,3146.78,558.83,3145.41,559.67Z" transform="translate(-5.74 -4.97)"/><path class="cls-2" d="M501.86,5.15c-69.82,0-69.85,0-71.51,7.15C428.56,20,324.85,646.56,321.65,669h0l-1.93,13.52h64c58.89,0,64-.45,64-5.57,0-3.06,4.49-38.84,10-79.5l10.12-73.94h67.91l10.13,73.94c5.56,40.66,10.09,76.44,10,79.5-.06,5.12,5.06,5.57,63.54,5.57,51.53,0,63.6-.82,63.6-4.33,0-4.77-107.08-654.41-109.76-665.91C571.7,5.15,571.67,5.15,501.86,5.15Zm159,655.24c0,1.81-17.44,3.06-42.72,3.06-38,0-42.89-.61-44.28-5.56-.86-3.06-6.2-38.84-11.87-79.51l-10.31-73.94H501.33c-27.69,0-50.36.53-50.36,1.17,0,3.33-19.46,141.65-21,149.1h0l-1.78,8.75H385.53c-36,0-42.68-.76-42.68-4.81,0-5.25,100.57-615.62,103.36-627.26,1.68-7.08,2.34-7.16,55.48-7.16h53.78l3.39,16.7c1.86,9.18,20.47,120.45,41.35,247.25C654.77,619.55,660.87,657,660.87,660.39Z" transform="translate(-5.74 -4.97)"/><path class="cls-2" d="M2177.84,100.56c0,74.63.87,95.24,4,94.61,2.18-.43,4,1.36,4,4s-1.79,4.41-4,4c-3.16-.62-4,48.93-4,239.32h0v240.1h29.82c22.63,0,30.78-1.15,33.79-4.77,2.17-2.63,5.75-4.77,8-4.77s5.77,2.15,7.95,4.77c2.76,3.33,10.09,4.77,24.24,4.77h20.28V5.16h-124ZM2182.62,409c2.48-7.81,8-8.34,7.89-.76h0a22.25,22.25,0,0,1-2.78,9.88C2183.9,424.17,2180,417.23,2182.62,409Zm8-84.29c2.15-1.33,3.14-48.7,2.91-139.41-.2-75.58.61-142.58,1.8-148.9,2.28-12.16,8.68-15.36,30.7-15.36,5.39,0,10-2,11.12-4.9a6.75,6.75,0,0,1,7.06-4.06,16.09,16.09,0,0,0,9.63-1.94c3-1.84,5.71-1.07,8.16,2.27,2.31,3.17,9.63,5.42,19.57,6l15.88,1-.95,267.16c-.52,146.94-1.82,291.73-2.89,321.74-1.87,52.33-2.24,54.65-8.78,56.41h0c-7.57,2-69.71,1.82-80.41-.27-9.67-1.9-10.69-10.7-10.69-92,0-39.64-1.26-71.16-2.84-71.16-3.42,0-7.56-9.75-5.16-12.15.94-.93,3.48.73,5.64,3.7,3.17,4.34,3.77-10.25,3-74.17-.55-48.47-2.11-79.57-4-79.57C2186.35,339.09,2186.5,327.28,2190.63,324.73Z" transform="translate(-5.74 -4.97)"/><path class="cls-2" d="M967.76,5.14l.93,60.43.93,60.43h79.24V404.27h0V682.54h34.65c30,0,34.92-.74,36.78-5.57,2-5.3,2.3-5.3,5.27,0,2.54,4.53,7.56,5.57,26.82,5.57h23.69V126h82.69V5.15h-291Zm270,24.13c2.51,6.54,2.51,66.08,0,72.62-1.61,4.21-8.33,5-41.32,5H1157l-.81,277.47h0l-.82,277.48-41.76.88c-36,.76-42,.18-43.73-4.23-1.08-2.82-2-128.08-2-278.37V106.92H988.43V24.24h123.69C1222,24.24,1236,24.8,1237.74,29.27Z" transform="translate(-5.74 -4.97)"/><path class="cls-3" d="M5.74,344.07V5.15L102,5.2c119,.06,139.6,3.72,167.23,29.72,26.08,24.55,29.06,40.55,29.11,156.49,0,102.32-1.85,118-16.39,136.48-6.06,7.69-6.37,9.59-2.59,15.54,2.37,3.73,8,13.22,12.46,21.09l8.14,14.31V604.77L289.47,626c-11.79,23.93-26.73,37.63-52.46,48.08-15.57,6.33-23.31,6.82-123.94,7.84L5.74,683V344.08ZM217.36,658.6c27.52-7,42.58-18.56,53.93-41.26l9.54-19.08,1-81.89c.83-68.49,1.74-81.89,5.55-81.89,5.12,0,4.65-7.58-1.13-18.08a35.89,35.89,0,0,1-3.82-14.54c0-16.2-10.05-37-24.16-50l-14.16-13,9.76-8.21c5.37-4.52,12.92-14.11,16.78-21.33,6.83-12.77,7-15.88,7-119.65V83.06l-8.13-15.9c-10.24-20-32.68-34.44-61.43-39.45-11-1.91-56.72-3.48-101.62-3.48H24.84V663.46h86.78c67.37,0,91-1.09,105.74-4.85ZM110.7,480.31V379.86l36.46,1.07c29.81.87,37.51,2.11,42.14,6.74,5.11,5.12,5.77,14.17,6.61,91.87,1.18,107.78,4.37,101.23-49.2,101.23h-36V480.32Zm65.19.28V401.08l-23.06-.93-23.06-.94V562l23.06-.93,23.06-.94v-79.5ZM113.08,299.05c-1.31-1.31-2.39-45.08-2.39-97.26V106.91h34.38c40,0,44.56,2.11,48.49,22.45,3.41,17.69,3.49,123.35.1,143.94-3.86,23.47-7.87,25.85-45.71,27.08-17.87.59-33.56,0-34.87-1.32Zm61.11-23.37c3.52-6.58,4.73-135.85,1.36-144.65-1.5-3.92-6.8-5-23.85-5H129.77V281.83h20.56c17.08,0,21.12-1.05,23.86-6.15ZM321.65,669c3.2-22.46,106.91-649,108.7-656.72C432,5.15,432,5.15,501.86,5.15s69.84,0,71.51,7.15c2.68,11.5,109.76,661.14,109.76,665.91,0,3.51-12.07,4.33-63.6,4.33-58.48,0-63.6-.45-63.54-5.57,0-3.06-4.49-38.84-10-79.5l-10.13-73.94H467.9l-10.12,73.94c-5.56,40.66-10.09,76.44-10,79.5.06,5.12-5.08,5.57-64,5.57h-64L321.64,669ZM430,654.71c1.52-7.45,21-145.77,21-149.1,0-.64,22.67-1.17,50.36-1.17h50.36L562,578.38c5.67,40.67,11,76.45,11.87,79.51,1.39,5,6.31,5.56,44.28,5.56,25.28,0,42.72-1.25,42.72-3.06,0-3.42-6.1-40.84-60.66-372.2-20.88-126.8-39.49-238.07-41.35-247.25l-3.39-16.7H501.69c-53.14,0-53.8.08-55.48,7.16-2.79,11.64-103.36,622-103.36,627.26,0,4.05,6.72,4.81,42.68,4.81h42.68l1.78-8.75Zm33.7-234c0-5.75,31.26-224,33.76-235.69l2-9.36,4.12,7.87c2.27,4.32,11.39,59.26,20.27,122.07,12.58,89,15.28,114.76,12.19,116.72-2.18,1.38-19.34,2.54-38.15,2.56-26.34,0-34.18-.92-34.18-4.18h0Zm54.15-18.83c.2-9.88-14.31-107.33-16-107.33s-16.18,97.46-16,107.33c.05,2.64,5.42,4,16,4S517.79,404.52,517.84,401.88Zm225.71,2.38V126H660.86V5.14H950.27V126H867.58V682.53h-124V404.26Zm104.17-19.78.81-277.38,40.53-.89,40.53-.89V25.81L804.77,25,680,24.15v82.76h39.39c38.15,0,39.44.22,41.3,7.16,1.05,3.93,1.93,129.2,2,278.36l0,271.21,42.14-.89,42.14-.89.81-277.38Zm201.13,19.78V126H969.61l-.93-60.43-.92-60.43h291V126h-82.69V682.53h-23.69c-19.26,0-24.28-1-26.82-5.56-3-5.3-3.23-5.3-5.27,0-1.86,4.83-6.73,5.56-36.79,5.56h-34.64V404.26Zm107.35-19.87.82-277.48h39.39c33,0,39.71-.81,41.33-5,2.51-6.54,2.51-66.08,0-72.62-1.72-4.47-15.77-5-125.62-5H988.43v82.69h79.5V380.16c0,150.28.89,275.54,2,278.36,1.69,4.41,7.74,5,43.73,4.23l41.76-.88.81-277.47Zm126,283.39c1.11-8.12,2.11-65,2.22-126.41.13-69.93,1.28-109,3.08-104.5,3,7.44,7.75,9.28,10.88,4.21,2.94-4.75-5.33-19.73-9.91-18-3.4,1.3-4.32-37-5-208.18L1282.6,5.15h125.62V561.69h124V682.54H1280.14l2-14.75Zm209.63-4.28,21.56,0-.89-40.55-.89-40.54-60.43-1.59-60.42-1.6-1.59-276.68-1.59-276.68-16.7-1c-9.18-.53-16.69-2.09-16.69-3.47s-3.63-4.15-8.05-6.17c-7.5-3.41-7.82-3.23-4.66,2.67s2.38,6.34-17.39,6.34h-20.79v639.1l77.12,1c42.42.53,80,.58,83.48.1s16.07-.88,27.93-.91v0Zm65.89-9c0-15.39,1.48-29.47,3.3-31.29,2.28-2.27,2.28-6,0-12-2.19-5.77-3.3-108.81-3.3-307.41V5.14h124c118.3,0,124,.28,124,5.85s-7,6.11-114.49,10.06l-114.49,4.2V184.7c0,111.08-1,160.51-3.47,162.93s-2.44,5.41.26,10.47c2.06,3.84,3.39,13.66,3,21.81s-.55,75.28-.26,149.18l.52,134.36h106.28c58.45,0,108.54-.87,111.31-1.93,4.2-1.61,5-8.2,5-39.76,0-20.8-.36-38-.79-38.32s-29.12-1.34-63.73-2.38c-51-1.53-63.49-2.79-65.89-6.66-3.79-6.11-.24-184.87,3.76-189.22,1.66-1.81,26.84-3.61,58.37-4.18l55.44-1,5.46-9.24c9.93-16.81,13.74-14.55,13.74,8.16v20.57h-124V561.68h124V682.53H1557.69v-28Zm314.84-310.71V5.14h125.62c105.3,0,125.62.72,125.62,4.44s-17,4.71-97.79,6c-67.83,1.1-103.15,2.93-115.28,6L1893.21,26v635.9l31.8,1.82c17.49,1,40,1.16,50.09.36l18.29-1.47V637c0-14,.52-24.93,1.15-24.2s2,16.71,3,35.51l1.85,34.19H1872.54V343.85Zm305.36,167c.11-149.07.74-171.73,4.81-171.73,2.57,0,4.89,2.5,5.15,5.56s.62,7.71.8,10.34a20.82,20.82,0,0,0,2.7,8.43c1.31,2,2.19,11.55,2,21.2-.33,14.27-1.52,17.84-6.35,19.1a8.41,8.41,0,0,0-5.95,7.68c0,8.44,3.34,11,8.61,6.65,3.73-3.11,4.34,2.06,3.9,33.38-.28,20.85-1.75,36.29-3.35,35.3-5.41-3.34-6.74,8.44-1.6,14.12,4.44,4.91,5.17,16,5.21,80.19,0,41,1.32,76.5,2.89,79,1.66,2.63,10.18,5.09,20.68,6,9.81.81,18.61,2.73,19.56,4.26s.2,2.78-1.65,2.78-3.37,2.15-3.37,4.77c0,3.87-5.12,4.78-27.06,4.78h-27.06l.11-171.74Zm88,165.06c-1-3.67-.9-5.83.13-4.8s3.44.62,5.35-.92,9.56-3.79,17-5c13.47-2.22,13.52-2.19,13.52,7.59s-.11,9.82-17.12,9.82c-14.72,0-17.37-.94-18.87-6.67Zm118.73-250.79c.08-225.8.67-257.26,4.79-255.68a9.07,9.07,0,0,1,5.16,7c.25,2.88.72,110.41,1.05,239s1.6,236.84,2.83,240.62,4.71,7.82,7.7,9c9.14,3.59,188.5,5.68,208.18,2.43l18.29-3v18.12h-46.32c-25.85,0-49-1.46-52.48-3.3-4.24-2.26-6.15-2.26-6.15,0s-24.35,3.3-71.57,3.3h-71.57l.09-257.47Zm314.78,100.05c0-98.15,1.15-157.42,3.05-157.42,2.87,0,4.61,53.23,3.18,97-.74,22.4-.58,35.08,1.57,124l1.62,66.79,8.19,7.15c7.21,6.3,12,7.22,39.81,7.67,17.4.28,37.35,1,44.35,1.5s16.3,1.22,20.67,1.48c9,.55,10.5,4.39,2.92,7.3-2.77,1.06-32.1,1.93-65.19,1.93h-60.17V525.12Zm149.47,154.45c0-1.64-3.93-3.6-8.74-4.38s12.72-1.57,39-1.78,52.35-1.27,58-2.35c9-1.72,10.33-1.11,10.33,4.76,0,6.55-1.23,6.72-49.29,6.72-28.41,0-49.29-1.26-49.29-3Zm127.21-8.66V659.29l7.06,6.06c3.88,3.33,8.78,7.63,10.89,9.56s13.43,3.66,25.16,3.86,22.11,1.13,23,2.07-13.56,1.7-32.22,1.7h-33.92Zm78.72,9.52a12.3,12.3,0,0,1,7.95,0c2.18.88.39,1.6-4,1.6s-6.16-.72-4-1.6ZM2575,577.83c-30.3-1.28-44.86-3.18-48.65-6.32-9.54-7.93.49-9.72,54.53-9.77l51.67,0v9.54c0,7.93-1.2,9.44-7.15,9C2621.44,579.91,2598.76,578.84,2575,577.83Zm369.71-6.6c0-4.38.73-6.17,1.61-4a12.3,12.3,0,0,1,0,8c-.88,2.19-1.61.4-1.61-4Zm-84.57-2.86c-1.11-1.78,3-4.11,9.31-5.3,12.68-2.38,51.64,1,53.91,4.69.82,1.31-12.63,2.71-29.89,3.09-18.28.41-32.19-.63-33.33-2.48ZM2011.17,394.88c2.75-7.18,18.87-10.69,56.3-12.27,31.8-1.35,35.09-2.09,43.11-9.78,4.78-4.57,9.68-8.32,10.9-8.32s2.21,7.87,2.21,17.49v17.49h-57.15c-48.64,0-56.88-.68-55.37-4.61Zm535.48,1.79c0-1.56,1.79-2.65,4-2.44s13.73-1.44,25.65-3.66c18.72-3.5,23-3.39,31.5.85,12.43,6.2,17.1,6.25,12,.13-2.45-3-2.69-4.78-.61-4.78,1.84,0,3.8-3.1,4.36-6.9s2.81-7.5,5-8.22c2.8-.92,4,3,4,13.27V399.5h-42.93c-23.62,0-42.94-1.28-42.94-2.83ZM2180,331.78c-3.84-10-2.34-81.76,1.71-81.76,2.62,0,2.57-1.06-.18-3.81-4.44-4.44-5.23-40.71-.9-40.71a27.89,27.89,0,0,0,7.74-1.85c4.22-1.62,4.65,5,3.45,53.14-1.16,46.46-2.18,55.44-6.53,57.88-2.84,1.58-3.82,3.79-2.17,4.9s2.11,5.59,1,10c-1.68,6.82-2.27,7.14-4.15,2.25Zm4.47-41.26c-3.14-3.12-3.51-2.75-1.78,1.78,1.19,3.14,3,4.9,4,3.92s0-3.54-2.17-5.7ZM1668.9,204c0-86.24.3-90.68,6.16-93.81,3.51-1.88,28.21-3.3,57.58-3.3,51.07,0,51.47,0,57.68-8,10.49-13.33,15.33-10.34,15.33,9.48v17.42l-62.8.86c-34.55.48-62.46,1.94-62,3.25s.8,36,.8,77.12v74.74h62c49.84,0,62,.84,62,4.28,0,4.51-50.27,8.4-108.93,8.42l-27.82,0V204Zm369.55,78.62c15.21-.58,41-.58,57.24,0s3.82,1.06-27.66,1.06-44.8-.47-29.58-1.05Zm660.9-49.31c0-32.13,1.08-46.89,3.1-43.73,1.67,2.62,3,16.24,2.88,30.26s.11,26.89.46,28.62c1.83,9.16-.57,33.35-3.31,33.35C2700.5,281.83,2699.32,263.57,2699.35,233.33Zm-517.63-39.48c-3.06-1.23-4-23.29-4-95.15V5.14h62c49.27,0,62,.87,62,4.21,0,3-5.65,4.35-19.08,4.72-11,.31-19.08-.82-19.08-2.66,0-4.32-19.5-2.91-25.44,1.84-2.63,2.1-10.5,4.78-17.49,6-21.22,3.61-23.55,5-26.35,15.53-1.48,5.58-2.21,39.49-1.62,75.34,1,63.58-.22,86.13-4.78,85.62a31,31,0,0,1-6.21-1.86Zm204.86-38.17c-1.17-1.17-2.12-17.68-2.12-36.69,0-31.93.42-34.34,5.57-31.59,4.86,2.6,5.43,7.2,4.56,36.68-.92,31.2-2.44,37.17-8,31.6Zm312.72-26.32c0-7.1.56-12.91,1.24-12.91,2.55,0,3.79,22.71,1.33,24.24C2700.46,141.56,2699.3,136.46,2699.3,129.36Zm-686.93-7.89c0-6.84,17-10.68,54.7-12.35,28.38-1.26,35.46-2.62,42.57-8.22,4.69-3.69,9.77-6.71,11.28-6.71s2.76,7.16,2.76,15.9V126H2068c-46,0-55.65-.78-55.65-4.52ZM2546.65,123c0-4.24,24.19-9.73,42.84-9.73,14.83,0,20-1.49,27.71-8,5.19-4.37,10.77-7.95,12.38-7.95s2.94,6.5,2.94,14.45v14.45l-42.94-.46c-23.61-.25-42.93-1.52-42.93-2.81Zm152.65-21c0-4.48,1.3-7.34,2.88-6.36s2.14,4.64,1.22,8.14C2701.11,112.49,2699.3,111.7,2699.3,102ZM2385.1,61.85c.94-19.39,6.47-28.16,9.79-15.49,1.11,4.26.16,6.49-2.78,6.49-5.16,0-6,5-1.29,7.95,5.32,3.29,3.86,20.67-1.74,20.67C2385.06,81.47,2384.33,77.85,2385.1,61.85Zm3.33-30.19c-2.21-.89-4-7-4-13.86V5.55l59.05-.25c36.42-.16,58.34.89,57.2,2.75-3.26,5.27-79.94,11.36-82.89,6.59s-7.94-3.71-6,1.35c1,2.66-.84,5.29-4.58,6.48-3.46,1.1-7.1,4.09-8.08,6.65-1.84,4.8-3.91,5.29-10.73,2.54Zm10.34-20.15a6.81,6.81,0,0,0-5-3.18,3.09,3.09,0,0,0-3,3.18c0,1.74,2.23,3.18,5,3.18S2399.85,13.25,2398.77,11.51Zm300.53,7.65v-14h22.26c17.67,0,22.26,1,22.26,4.77,0,3.22-3.21,4.78-9.87,4.78a19,19,0,0,0-15.83,7.56c-3.27,4.15-8.84,8.31-12.38,9.24C2700,33,2699.3,31.66,2699.3,19.16Zm-128-6.85c-73.58-1.32-70.33-7.17,4-7.17,48.76,0,57.24.71,57.24,4.78,0,2.62-1.79,4.44-4,4.05S2600.6,12.83,2571.3,12.31Zm178.89-.62a6.85,6.85,0,0,1,3.18-5c1.75-1.08,3.18.27,3.18,3s-1.43,5-3.18,5A3.1,3.1,0,0,1,2750.19,11.69Zm33.39-3.53c8.74-3.53,17.49-3.6,17.49-.15,0,1.57-5.36,2.83-11.92,2.79C2779.93,10.74,2778.66,10.14,2783.58,8.16Zm20.67.16c0-1.74,4.3-3.18,9.54-3.18s9.54,1.44,9.54,3.18-4.29,3.19-9.54,3.19S2804.25,10.07,2804.25,8.32Z" transform="translate(-5.74 -4.97)"/><path class="cls-4" d="M5.74,344.07V5.15L102,5.2c119,.06,139.6,3.72,167.23,29.72,26.08,24.55,29.06,40.55,29.11,156.49,0,102.32-1.85,118-16.39,136.48-6.06,7.69-6.37,9.59-2.59,15.54,2.37,3.73,8,13.22,12.46,21.09l8.14,14.31V604.77L289.47,626c-11.79,23.93-26.73,37.63-52.46,48.08-15.57,6.33-23.31,6.82-123.94,7.84L5.74,683V344.08ZM217.36,658.6c27.52-7,42.58-18.56,53.93-41.26l9.54-19.08,1-81.72c.84-69.51,1.68-81.45,5.57-80,6.3,2.42,6.15-13.71-.2-20.05-2.62-2.62-4.77-8.71-4.77-13.52,0-15.3-9.43-37.15-20.8-48.16-12.68-12.3-13.7-18.71-4.3-27.21,3.68-3.34,9.77-11.79,13.52-18.78,6.58-12.28,6.81-16.42,6.81-119.26V83.06l-8.13-15.91c-10.25-20-32.69-34.43-61.44-39.43-11-1.92-56.54-3.48-101.2-3.48H25.66l-2,11.92c-2.57,15.58-2.57,599.81,0,615.38l2,11.92H112c67,0,90.62-1.08,105.33-4.85ZM114.51,577c-5-5-5.46-181.17-.53-190.39,2.86-5.34,6.86-6.15,30.37-6.15,31.21,0,44.46,5,48.18,18.34,1.34,4.78,2.44,44.24,2.44,87.68v79L186,573.09c-8,6.92-11.83,7.68-38.32,7.68-18.62,0-30.8-1.4-33.21-3.82Zm61.37-96.36v-79.5l-23-.94-23.06-.93V562l23.06-.94,23-.93V480.59ZM114,294.76c-4.92-9.2-4.44-179.06.53-184,2.38-2.39,14.23-3.82,31.62-3.82,24.81,0,28.77.83,36.73,7.67l8.93,7.67,1,72.64c.65,46.78-.24,76.87-2.51,84.53-4.89,16.56-15.8,21.49-47.53,21.49-21.94,0-25.94-.86-28.78-6.15Zm60.2-19.08c3.52-6.58,4.74-135.85,1.36-144.65-1.5-3.91-6.79-5-23.85-5H129.77V281.83h20.56c17.07,0,21.12-1,23.85-6.15ZM321.64,669c3.2-22.46,106.92-649,108.71-656.71C432,5.16,432,5.15,501.85,5.15s69.85,0,71.52,7.16c2.68,11.5,109.76,661.13,109.76,665.9,0,3.51-12.07,4.33-63.61,4.33-58.48,0-63.6-.45-63.53-5.56,0-3.06-4.49-38.84-10.06-79.51l-10.12-73.94H467.9l-10.12,73.94c-5.57,40.67-10.09,76.45-10.06,79.51.07,5.11-5.07,5.56-64,5.56h-64L321.64,669ZM429.71,656.3c.92-3.93,5.58-36.49,10.34-72.35s10.63-68.41,13-72.35c4.2-6.84,6.24-7.16,46.86-7.16,32.14,0,43.35,1.07,46.1,4.37,2,2.41,7.91,35,13.14,72.35s11.17,71.21,13.2,75.14c3.54,6.88,5.33,7.16,46.08,7.16,33.79,0,42.4-.89,42.4-4.36,0-2.4-3-21.36-6.6-42.14s-9.21-55-12.41-75.94S630.29,467.8,623.25,425s-16.52-101.53-21-130.39c-8.34-53.24-37.43-223.07-43.45-253.62l-3.29-16.7h-53.3c-52.1,0-53.38.16-56.88,7.16C441,40,342.78,634.44,342.82,651.54l0,11.93h42.59c41.55,0,42.63-.18,44.28-7.16Zm38.81-236.52c-3.27-3.27-4.56-8.23-3.52-13.52.91-4.59,7.55-49.61,14.76-100.05s14.89-97.66,17.06-104.95L500.77,188l4,17.49c5.47,24.17,28.94,189.55,28.94,203.89s-2.59,15.54-35,15.54c-18.78,0-26.23-1.27-30.12-5.16Zm49.32-17.89c.2-9.88-14.32-107.33-16-107.33s-16.18,97.45-16,107.33c.05,2.64,5.42,4,16,4S517.78,404.53,517.84,401.89Zm225.71,2.38V126H660.86V5.15h289.4V126H867.58V682.54h-124V404.27Zm104.17-15.76c.55-183.92,1.9-274.44,4.12-276.68,1.82-1.83,20.06-4,40.53-4.91l37.22-1.59V25.89l-9.54-2c-16.92-3.52-238.26.86-240.85,4.76-2.81,4.23-3.24,66.09-.5,73.22,1.59,4.15,7.87,5,35.77,5.08,18.62,0,36,1.4,38.62,3.06,4.16,2.63,5,38.18,6.42,277.42.91,150.94,2,274.82,2.39,275.31s19.69.48,42.87,0l42.14-.89.81-273.36Zm201.13,15.76V126H969.61l-.93-60.43-.93-60.43h291V126h-82.68V682.54h-23.51c-18,0-24-1.12-25.35-4.77-1-2.62-3.3-4.77-5.11-4.77s-3.28,2.15-3.28,4.77c0,4-6,4.77-35,4.77h-35V404.27Zm107.33-15.9c.73-252.64,1.2-273.8,6.17-277.47,3.52-2.6,17.18-4,39.42-4,28.1,0,34.37-.87,36-5,1.07-2.76,1.93-19.83,1.93-37.93,0-26.3-1.05-34-5.23-38.14-4.71-4.71-17.15-5.13-124.15-4.2-101.47.88-119.36,1.73-121.93,5.8-3.31,5.23-4.28,66.41-1.18,74.47,1.59,4.16,7.9,5,36.39,5,32,0,34.82.51,39.41,7.07,4.39,6.26,5,37.48,5,273.24,0,146.39.88,268.48,2,271.3,1.69,4.41,7.74,5,43.73,4.23l41.76-.88.8-273.51Zm126,279.41c1.11-8.11,2.12-64.28,2.24-124.82.16-82.68,1.09-108.26,3.72-102.78,2,4,5.4,6.57,7.74,5.67,3.46-1.33,4.23,17.49,4.27,104,0,61,1.33,107.66,3.07,110.41,5.26,8.33,201.15,9.85,209.4,1.63,1.18-1.18,2.62-18.21,3.2-37.86.91-30.8.3-36.34-4.45-40.29-4.15-3.45-19.28-5-61.48-6.17l-56-1.59-1.59-273.5c-.88-150.42-2.75-275.29-4.16-277.47s-9-4-17-4c-9.57,0-17.59-2.25-23.84-6.7-9.89-7-15.76-6.14-9.45,1.46,3.07,3.7.69,4.69-14.15,5.93-10.49.87-19,3.32-20.68,6s-2.86,91.25-2.89,200.86c0,128.77-1.14,196.38-3.23,196.38a3.37,3.37,0,0,1-3.18-3.52c0-1.94-2.16-2.69-4.81-1.67-4.26,1.63-4.79-21.52-4.68-203.37.06-112.86-.72-206.56-1.74-208.22-1.15-1.86,22.57-3,61.93-3h63.79V124.6c0,78.82-1.08,118.78-3.18,117.48-1.75-1.08-3.18-.45-3.18,1.4a3.29,3.29,0,0,0,3.18,3.37c2.08,0,3.18,54.6,3.18,157.42V561.69h124V682.54h-252.1l2-14.75Zm275.52-11.89c0-19.8,1.23-27.65,4.77-30.6,2.63-2.17,4.78-6.47,4.78-9.54s-2.15-7.36-4.78-9.54c-4.17-3.47-4.77-41-4.77-302.51V5.15h124c68.22,0,124,1.23,124,2.73s-28.26,3.73-62.81,5c-76.31,2.71-146.39,7.13-157.6,9.94-5.67,1.42-9.25,5.24-11.35,12.1-1.89,6.2-2.86,126.92-2.53,316,.44,246.45,1.35,306.74,4.68,310.07S1604.74,665,1693,665h112.73v17.49H1557.67V655.89Zm315.7-312.13L1874.12,5l124.82.28c75.43.17,124.82,1.46,124.82,3.26s-34.21,3-85.07,3c-100.73,0-138,4.31-149.21,17.21l-6.89,8,.74,309.07.75,309.07,7.08,5.73c3.89,3.15,13.52,6.7,21.39,7.88,15.54,2.33,65.47.12,76.53-3.39,5.24-1.66,7.35-.61,9,4.45,1.15,3.64,1.2,8.06.11,9.83-1.22,2-25.64,3.21-63.75,3.21h-61.78l.74-338.77,0,0Zm304.45,324.08c0-13.49.46-14.36,5.56-10.5a70.88,70.88,0,0,1,9.37,8.71c2.08,2.47,8.42,5.44,14.07,6.6s10.86,3.85,11.57,6c.94,2.81-4.54,3.9-19.64,3.9h-20.93v-14.7Zm110.31,8.63a11.82,11.82,0,0,1,7.65-7.65c4.73-1.24,6.07.1,6.07,6.06s-1.69,7.65-7.66,7.65S2286.9,681.2,2288.14,676.47Zm100.22,2.25c-2.1-2.1-3.77-7.47-3.72-11.93.09-6.87.7-7.38,4-3.34,9.84,12.12,16.45,14.34,48.09,16.17l32.11,1.85-38.32.53C2404.29,682.37,2391,681.33,2388.36,678.72Zm-209.51-50.25c0-11.37.57-16,1.28-10.33a100.56,100.56,0,0,1,0,20.67C2179.43,644.49,2178.85,639.84,2178.85,628.47Zm-.22-39.75c0-7,.59-10.23,1.39-7.19a34.89,34.89,0,0,1,.06,12.72C2179.32,598.2,2178.67,595.72,2178.63,588.72Zm-384-8c-5.25-1.34-30.74-2.6-56.66-2.81s-49.88-1.85-53.27-3.66c-5.68-3-6.1-6.66-5.46-46.91l.69-43.62,1,39.75,1,39.76,61.93-1,61.93-1v11.32c0,6.23-.36,11.15-.8,10.94s-5.08-1.47-10.33-2.8Zm383.72-41.34c0-4.38.72-6.17,1.61-4a12.3,12.3,0,0,1,0,7.95C2179.05,545.59,2178.33,543.8,2178.33,539.43Zm-.25-71.3c-.14-3.35.61-5.23,1.67-4.17s1.17,3.8.25,6.1C2179,472.59,2178.23,471.84,2178.08,468.13Zm-489.87-73.31c5.61-5.61,40.66-11.08,71.6-11.16,18.88-.06,24.15-1.33,33.22-8,5.92-4.37,11.21-7.95,11.74-7.95s1,7.16,1,15.9v15.9h-61.11c-53.75,0-60.54-.56-56.43-4.67Zm361.71-.28c4-2.79,17.18-5.75,30.13-6.77,17.52-1.38,25.52-3.67,33.38-9.52l10.34-7.7V399.5h-40.46c-37.55,0-40-.36-33.39-5ZM1704.77,282.65c11.8-.61,31.12-.61,42.93,0s2.15,1.11-21.47,1.11S1693,283.26,1704.77,282.65Zm473.31-72.12c-.14-3.35.61-5.23,1.67-4.17s1.17,3.8.25,6.1C2179,215,2178.23,214.24,2178.08,210.53ZM1689.76,123c-3.85-6.22,12.38-10.08,50.08-11.91,39.6-1.92,46.12-3.3,58.74-12.45l7.16-5.19V126h-57.06C1716.08,126,1690.82,124.7,1689.76,123Zm359.37,0c-2.63-4.26,19.09-9.68,38.87-9.7,13.86,0,17.9-1.38,23.63-8,9.76-11.22,12.13-10,12.13,6.36V126h-36.39C2067.36,126,2050.15,124.64,2049.13,123Zm129.56-16.08c0-7.87.62-11.09,1.38-7.15a45.19,45.19,0,0,1,0,14.31C2179.31,118,2178.69,114.78,2178.69,106.91Zm-.87-90.63V5.14h33.93c18.65,0,33.16.76,32.23,1.69-2.47,2.47-15.07,5.25-29.41,6.49-6.9.6-16.5,4-21.34,7.59-12.3,9.1-15.41,8.17-15.41-4.63Zm89-8c0-1.75,4.29-3.19,9.54-3.19S2286,6.58,2286,8.33s-4.29,3.18-9.54,3.18S2266.87,10.07,2266.87,8.33Z" transform="translate(-5.74 -4.97)"/><path class="cls-5" d="M5.74,343.84V5.15l86.67.1c47.66,0,97.39,1.48,110.51,3.16,33.9,4.36,61.94,18.91,75.48,39.17C296,73.85,296.73,79.93,296.73,191.19c0,108.58-.64,114-16.31,137.07-4.39,6.46-6.74,12.61-5.22,13.67,6.82,4.73,16.6,22.65,21.44,39.28,4.54,15.61,5.11,32,4.11,117.6-1.34,114.33-2.66,121.8-26.22,148-27.8,30.92-51.36,35.67-177.36,35.7l-91.43,0V343.85h0Zm194.7,324.55c47.32-3,78.4-29,87.73-73.31,4-18.83,5.78-182,2.22-200.35-3.15-16.25-12.78-35.77-23.1-46.78l-8.07-8.62,8.59-11.26c18.6-24.39,19.15-27.75,20.38-123.71,1.51-118.09-2.77-141.23-30.32-164C234.52,21,215.72,17.89,119,17.21c-47.44-.34-90.9.5-96.59,1.86L12.1,21.55V665.74l13.52,3.06c12.71,2.88,127.85,2.61,174.81-.4ZM124.21,572.3c-3-1.23-4-22.62-4-91.83V390.24l11.31-2.12c16.76-3.14,42.46.18,48.55,6.28,4.71,4.71,5.33,14.92,5.33,88.16,0,97.08,1.93,92-34.79,91.6C138.29,574,126.4,573.19,124.21,572.3Zm51.45-12.43c4.25-4.25,5-15.84,5-77.65,0-40-.87-74.93-1.93-77.69-1.52-4-6.94-5-25.44-5H129.78V564.87h20.44C164.57,564.87,172.16,563.38,175.66,559.87ZM120.24,204.18V116.74l11.3-2.12c18.06-3.39,43.22.17,48.06,6.8,5.91,8.07,6,148.74.13,160.41-3.75,7.44-5.78,8-31.75,8.87l-27.74.92V204.18Zm55.69,70.49c1-3.93,1.35-38.64.86-77.12l-.9-70-23.06-.94-23.06-.93V281.83H152c20.38,0,22.34-.59,24-7.16ZM320.58,681.26c0-.7,25.05-152.56,55.66-337.46S431.89,7.06,431.89,6.38s31.42-1.23,69.82-1.23h69.82l1.81,10.34c3.83,21.95,109.79,664.4,109.79,665.69,0,.75-27.79,1.36-61.76,1.36H559.61l-1.78-8.74c-1-4.81-5.44-35.94-9.92-69.17s-9-65.08-10-70.76l-1.82-10.34H467.59l-1.82,10.34c-1,5.68-5.49,37.52-10,70.76s-8.94,64.36-9.92,69.17l-1.78,8.74H382.35c-34,0-61.76-.57-61.76-1.27h0Zm111.18-18.4c3.57-3.83,6.51-8.48,6.53-10.34.2-18.25,19.84-137.08,23-139.08,6.89-4.38,77.51-3.18,81.29,1.38,1.84,2.21,7.86,36.2,13.38,75.53,7.46,53.15,11.35,72.53,15.15,75.49,3.45,2.68,17.72,4,43.91,4,33,0,39.88-.88,46-5.86l7.25-5.87L645.23,516.86c-42.44-260-79.61-482.11-81.46-486.95-3.66-9.55-17.31-12-66.23-12-35.82,0-50.08,1.13-54.43,4.31-5,3.63-14,53.47-57.76,317.23-28.53,172.1-51.91,316-52,319.84-.12,9.06,3.42,9.76,51.46,10.2,37.74.35,40.86-.09,46.91-6.59v0ZM480.39,416.5c-9.42-2-9.42-2.14,5.21-102.18,11.46-78.43,13.87-90,17.85-86,2.85,2.85,27.85,184.16,25.69,186.32-2.58,2.58-39,4-48.75,1.88Zm39.41-16.21c-.87-3.06-4.77-28.82-8.67-57.24s-8.08-51.68-9.28-51.68-5.36,23.26-9.27,51.68-7.81,54.18-8.67,57.24c-1.37,4.87.89,5.57,17.94,5.57s19.32-.7,17.95-5.57Zm223.75,4V126H660.86V5.15h289.4V126H867.58V682.54h-124V404.27Zm104,256c2.21-4.37,4.38-6.52,4.83-4.77s1.54-119.18,2.43-268.73l1.62-271.91,30.21-1.47,30.21-1.47L886.67,110l-30.21-1.9,37.37-.6,37.36-.61V24.22L920.86,24c-8.66-.18-9.31-.66-4-2.95,3.71-1.6-43.72-2.83-113.69-3-145.47-.27-132.77-4.93-132.77,48.68,0,29.72.94,37,5.24,40.55,3.44,2.87,17.35,4.91,40.55,6l35.31,1.59.76,271.91L753,658.68l6.86,5.66c5.9,4.86,12.3,5.53,45.27,4.77,37.37-.87,38.51-1.1,42.41-8.84Zm2.44-291c0-141.68.4-200.1.87-129.83s.48,186.19,0,257.6S850,511,850,369.28Zm-22.92-347c1.06-1.06,3.8-1.17,6.1-.25,2.54,1,1.78,1.76-1.92,1.92C827.93,24.12,826.05,23.36,827.1,22.31ZM936.69,60c-.69-6.56-1.25-1.2-1.25,11.92s.56,18.49,1.25,11.93A139.67,139.67,0,0,0,936.69,60ZM1052,404.27V126H969.35V5.15h286.22V126h-82.82l.22,277.47.21,277.47-21.4.95c-16.72.75-22-.12-24.16-4-3.51-6.29-8.8-6.38-8.8-.16,0,3.94-5.83,4.77-33.39,4.77H1052V404.26Zm105-15.79c0-268.61.14-275,6.15-278.27,3.38-1.81,22-3.29,41.34-3.29h35.19V24.52l-10.33-1.67C1213.9,20.35,996,19,1004.74,21.48c5.71,1.6,4.26,2.19-6,2.43l-13.52.32v82.69h36.39c34,0,36.72.46,41.35,7.06,4.38,6.27,5,38,5,278.27V663.46h89v-275Zm-97-275.2a7.38,7.38,0,0,0-5.75-3.13c-2.28,0-1.89,1.27,1,3.13C1061.33,117.23,1062.43,117.23,1060,113.28ZM981.23,49c-.62-11-1.14-2.83-1.14,18.16s.5,30,1.13,20,.63-27.16,0-38.16Zm303.16,508.71c.16-93.43,1.1-123,3.73-117.54,1.94,4,5.39,6.57,7.73,5.67,3.47-1.33,4.23,18.07,4.23,107.59V662.64l18.28,2c24.87,2.72,168.74,3,182.86.35,7.91-1.48,11.91-4.2,13.19-9,3-11.18,2.08-66.88-1.18-72.06-2.44-3.85-14.17-5.07-61.17-6.36L1393.9,576l-1.59-273.5c-.88-150.42-2.75-275.29-4.17-277.47s-9-4-17-4c-9.57,0-17.59-2.25-23.84-6.7-10.13-7.22-15.71-6.08-9.12,1.86,3.47,4.18,2.5,4.84-7.1,4.84A130.18,130.18,0,0,0,1310,23l-9.94,2V225c0,131.18-1.09,200-3.18,200a3.37,3.37,0,0,1-3.18-3.52c0-1.94-2.16-2.69-4.81-1.68-4.26,1.64-4.79-21.89-4.69-206.37l.12-208.22H1405l0,277.3c0,152.51,1.24,278.52,2.72,280s30.12,2.28,63.63,1.77l60.92-.93V682.56H1284.18l.22-124.82v0Zm273.28,98.18c0-19.8,1.23-27.65,4.77-30.6,2.63-2.18,4.78-6.47,4.78-9.54s-2.15-7.36-4.78-9.54c-4.17-3.47-4.77-41-4.77-302.51V5.15h124c68.22,0,124,1.23,124,2.73s-28.26,3.73-62.8,5c-76.32,2.71-146.4,7.12-157.61,9.94-5.67,1.42-9.24,5.24-11.35,12.1-1.89,6.2-2.86,126.91-2.53,316,.44,246.46,1.35,306.75,4.68,310.08S1604.73,665,1693,665h112.73v17.49H1557.66V655.89Zm318-312.14V5l124,.28c74.86.18,124,1.47,124,3.27s-34.26,3-85.07,3c-100.74,0-138,4.32-149.22,17.22l-6.89,8,.75,309.08.75,309.07,7.07,5.73c3.89,3.15,13.52,6.69,21.39,7.87,15.71,2.36,65.48.11,76.85-3.46,6.37-2,7.15-1.17,7.15,7.66v9.91H1875.69V343.76Zm302.12,324.08c0-13.48.46-14.35,5.56-10.49a70.21,70.21,0,0,1,9.37,8.71c2.08,2.47,8.42,5.44,14.07,6.6s10.86,3.85,11.57,6c.94,2.81-4.54,3.9-19.64,3.9h-20.94V667.83Zm110.31,8.64a11.82,11.82,0,0,1,7.65-7.65c4.73-1.24,6.07.1,6.07,6.06s-1.69,7.65-7.66,7.65S2286.89,681.2,2288.13,676.47Zm100.22,2.25c-2.1-2.1-3.77-7.47-3.72-11.93.09-6.87.7-7.38,4-3.34,9.84,12.12,16.45,14.34,48.09,16.17l32.11,1.85-38.32.53c-26.21.37-39.53-.67-42.14-3.28Zm-209.51-50.25c0-11.37.57-16,1.28-10.34a100.56,100.56,0,0,1,0,20.67C2179.41,644.49,2178.84,639.84,2178.84,628.47Zm-.22-39.75c0-7,.59-10.24,1.38-7.19a34.66,34.66,0,0,1,.07,12.72C2179.31,598.2,2178.66,595.71,2178.62,588.72Zm-384-8c-5.25-1.34-30.74-2.6-56.66-2.81s-49.89-1.86-53.27-3.67c-5.68-3-6.1-6.65-5.46-46.9l.69-43.62,1,39.91,1,39.91,61.92-.16,61.91-.16v10.34c0,5.69-.35,10.17-.78,10s-5.09-1.47-10.34-2.8Zm383.72-41.35c0-4.37.72-6.16,1.61-4a12.3,12.3,0,0,1,0,7.95C2179,545.59,2178.32,543.8,2178.32,539.42Zm-.25-71.29c-.14-3.35.61-5.23,1.67-4.17s1.17,3.8.25,6.09c-1,2.54-1.77,1.79-1.92-1.92ZM1688.2,394.82c5.61-5.61,40.66-11.08,71.6-11.17,18.88,0,24.15-1.32,33.22-8,5.92-4.37,11.21-7.95,11.74-7.95s1,7.15,1,15.9v15.9h-61.11c-53.75,0-60.54-.56-56.43-4.67Zm361.71-.28c4-2.79,17.18-5.76,30.13-6.78,17.52-1.38,25.52-3.66,33.38-9.51l10.34-7.7v28.94H2083.3c-37.55,0-40-.36-33.39-4.95Zm-345.15-111.9c11.8-.61,31.12-.61,42.93,0s2.15,1.12-21.46,1.12S1693,283.26,1704.76,282.64Zm473.31-72.11c-.14-3.35.61-5.23,1.67-4.17s1.17,3.8.25,6.09c-1,2.54-1.77,1.79-1.92-1.92ZM1689.75,123c-3.85-6.22,12.38-10.08,50.08-11.91,39.6-1.92,46.12-3.3,58.74-12.46l7.16-5.19V126h-57.06C1716.07,126,1690.81,124.7,1689.75,123Zm359.37,0c-2.63-4.25,19.09-9.67,38.87-9.69,13.86,0,17.9-1.38,23.63-8,9.76-11.23,12.13-10,12.13,6.36V126h-36.39C2067.35,126,2050.14,124.64,2049.12,123Zm129.56-16.07c0-7.87.62-11.09,1.38-7.15a45.19,45.19,0,0,1,0,14.31C2179.3,118,2178.68,114.78,2178.68,106.91Zm-.87-90.64V5.14h33.93c18.65,0,33.16.76,32.23,1.69-2.47,2.47-15.06,5.25-29.41,6.49-6.9.6-16.5,4-21.34,7.58-12.3,9.1-15.41,8.17-15.4-4.63Zm89.05-7.95c0-1.75,4.29-3.18,9.54-3.18s9.54,1.43,9.54,3.18-4.29,3.18-9.54,3.18S2266.86,10.07,2266.86,8.32Z" transform="translate(-5.74 -4.97)"/><path class="cls-6" d="M605.22,680.22c51.43-1,66.65-5,69.06-18.14.66-3.62-10.65-78.13-25.14-165.58s-26-161.88-25.59-165.38c.86-7.3,53.53,310,54.94,331,.52,7.62,1.86,15.34,3,17.16,1.39,2.25-18,3.08-61,2.6-59.07-.66-60-.76-15.29-1.61Zm138.44-275.1c-.16-152.58-1.49-278.6-2.94-280s-20-2.2-41.25-1.65l-38.61,1V5.15h287.8l-.93,60.43L946.82,126H864.17l.91,278.27L866,682.54H744l-.3-277.41ZM844.53,665.83a11.34,11.34,0,0,0,4-7.72c0-2.51,1.42-3.69,3.16-2.61,2.08,1.29,3.44-90.52,4-269.34l.81-271.3,30.21-1.47,30.21-1.46L886.67,110l-30.21-1.9,37.37-.61,37.36-.61V24.23L920.86,24c-8.18-.17-9-.73-4.13-2.65,4.58-1.79-189.5-7.8-231.14-7.15-3,0-9.06,2.68-13.42,5.85-7.71,5.62-7.92,6.82-8,46.24-.13,51.39-.43,51.09,50.38,50.39,28.19-.38,35,.42,36.45,4.32,1,2.63,1.16,123.67.34,269-1.06,185.85-.48,266.08,1.94,270.6a24.12,24.12,0,0,0,10.38,9.29c8.68,3.57,75.49.25,80.89-4h0ZM850,369.29c0-141.68.39-200.1.87-129.83s.48,186.19,0,257.6S850,511,850,369.29Zm-22.91-347c1.06-1.06,3.8-1.17,6.1-.25,2.53,1,1.78,1.77-1.92,1.92C827.93,24.12,826.05,23.37,827.11,22.31ZM936.69,60c-.68-6.56-1.24-1.19-1.24,11.93s.56,18.48,1.24,11.92A137.66,137.66,0,0,0,936.69,60ZM1052,404.27V126H969.36V5.15h286.22V126h-82.69V682.54H1151c-16.55,0-22.37-1.17-23.75-4.77-1-2.62-3.31-4.77-5.11-4.77s-3.28,2.15-3.28,4.77c0,3.94-5.83,4.77-33.39,4.77H1052V404.27Zm105-15.79c0-268.61.15-275,6.16-278.27,3.38-1.81,22-3.29,41.34-3.29h35.19V24.52l-10.34-1.67C1213.91,20.35,996,19,1004.75,21.48c5.71,1.61,4.26,2.19-6,2.44l-13.51.31v82.69h36.39c34,0,36.72.46,41.34,7.07,4.39,6.26,5,38,5,278.27v271.2h89v-275Zm-97-275.2a7.38,7.38,0,0,0-5.76-3.13c-2.27,0-1.88,1.28,1,3.13C1061.34,117.23,1062.44,117.23,1060,113.28ZM981.24,49c-.62-11-1.14-2.82-1.15,18.17s.51,30,1.14,20,.63-27.17,0-38.17ZM1284.4,557.72c.16-93.44,1.1-123,3.72-117.55,2,4.05,5.4,6.57,7.74,5.67,3.46-1.33,4.23,18.07,4.23,107.59V662.64l18.28,2c24.87,2.72,168.74,3,182.86.34,7.91-1.48,11.91-4.2,13.19-9,3-11.17,2.08-66.88-1.18-72-2.44-3.86-14.17-5.08-61.17-6.36L1393.91,576l-1.59-273.5c-.88-150.43-2.75-275.3-4.17-277.48s-9-4-17-4c-9.58,0-17.59-2.26-23.84-6.71-10.13-7.21-15.71-6.07-9.12,1.86,3.47,4.19,2.5,4.85-7.1,4.85A130.2,130.2,0,0,0,1310,23l-9.94,2V225c0,131.18-1.1,200-3.18,200a3.39,3.39,0,0,1-3.19-3.53c0-1.93-2.16-2.69-4.8-1.67-4.26,1.63-4.79-21.9-4.69-206.37l.12-208.23H1405l0,277.31c0,152.51,1.23,278.51,2.72,280s30.11,2.28,63.62,1.76l60.93-.93V682.56H1284.19l.21-124.82v0Zm273.28,98.18c0-19.81,1.23-27.66,4.77-30.6,2.63-2.18,4.77-6.48,4.77-9.55s-2.14-7.36-4.77-9.54c-4.18-3.46-4.77-41-4.77-302.51V5.15h124c68.22,0,124,1.23,124,2.73s-28.26,3.73-62.81,5c-76.31,2.7-146.39,7.12-157.6,9.93-5.67,1.42-9.25,5.24-11.35,12.11-1.89,6.19-2.86,126.91-2.53,316,.44,246.45,1.34,306.74,4.68,310.07s28.61,4.14,116.87,4.14h112.73v17.49H1557.67V655.89Zm318-312.14V5l124,.29c74.87.17,124,1.46,124,3.26s-34.25,3-85.07,3c-100.73,0-138,4.32-149.21,17.21l-6.89,8,.75,309.07.74,309.07,7.08,5.73c3.89,3.15,13.52,6.7,21.39,7.88,15.7,2.35,65.48.11,76.84-3.47,6.38-2,7.16-1.17,7.16,7.66v9.91H1875.7V343.76Zm302.12,324.08c0-13.48.47-14.36,5.57-10.49a70.06,70.06,0,0,1,9.36,8.7c2.09,2.48,8.43,5.44,14.08,6.6s10.85,3.85,11.57,6c.94,2.8-4.54,3.89-19.64,3.89h-20.94v-14.7Zm110.32,8.63a11.82,11.82,0,0,1,7.65-7.65c4.73-1.24,6.06.1,6.06,6.06s-1.68,7.66-7.65,7.66S2286.9,681.2,2288.14,676.47Zm100.22,2.25c-2.1-2.1-3.78-7.46-3.72-11.93.09-6.87.69-7.38,4-3.33,9.84,12.11,16.45,14.33,48.08,16.16l32.12,1.85-38.33.53C2404.29,682.37,2391,681.33,2388.36,678.72ZM556.44,657.1c0-4.37.73-6.16,1.61-4a12.33,12.33,0,0,1,0,8C557.17,663.26,556.44,661.47,556.44,657.1Zm-108-17.49c-.06-5.25.6-7.78,1.47-5.62s.92,6.44.12,9.54-1.52,1.33-1.59-3.92ZM553.49,638c0-6.12.66-8.62,1.46-5.56a26.11,26.11,0,0,1,0,11.13C554.15,646.65,553.49,644.14,553.49,638Zm1625.42-9.54c0-11.37.57-16,1.28-10.34a102.09,102.09,0,0,1,0,20.68C2179.48,644.5,2178.91,639.85,2178.91,628.48ZM550.3,615.76c0-6.12.65-8.63,1.45-5.56a26.11,26.11,0,0,1,0,11.13C551,624.39,550.3,621.88,550.3,615.76Zm-98.83,0c0-4.37.72-6.16,1.61-4a12.3,12.3,0,0,1,0,8C452.19,621.92,451.47,620.13,451.47,615.76Zm95.65-22.26c0-6.12.65-8.63,1.45-5.57a26.15,26.15,0,0,1,0,11.14C547.77,602.13,547.12,599.62,547.12,593.5Zm-92.47,0c0-4.37.72-6.16,1.61-4a12.3,12.3,0,0,1,0,8C455.37,599.66,454.65,597.87,454.65,593.5Zm1724-4.77c0-7,.59-10.23,1.39-7.19a34.89,34.89,0,0,1,.06,12.72C2179.35,598.21,2178.7,595.72,2178.66,588.73Zm-384-8c-5.25-1.34-30.74-2.6-56.66-2.81s-49.88-1.85-53.27-3.66c-5.67-3-6.09-6.66-5.46-46.91l.69-43.62,1,39.91,1,39.91,61.92-.16,61.92-.15v10.33c0,5.69-.35,10.17-.79,10s-5.09-1.47-10.34-2.8ZM543.93,571.24c0-6.12.66-8.63,1.46-5.57a26.15,26.15,0,0,1,0,11.14C544.59,579.87,543.93,577.36,543.93,571.24Zm-86.1,0c0-4.37.72-6.16,1.61-4a12.3,12.3,0,0,1,0,8c-.89,2.19-1.61.4-1.61-4ZM461,549c0-4.38.72-6.16,1.61-4a12.3,12.3,0,0,1,0,8C461.73,555.14,461,553.35,461,549Zm79.63-1.59c-.07-5.25.59-7.78,1.46-5.63s.93,6.45.12,9.54S540.7,552.64,540.64,547.39Zm1637.71-7.95c0-4.38.72-6.16,1.6-4a12.3,12.3,0,0,1,0,7.95c-.88,2.19-1.6.4-1.6-4ZM463.93,528.57c-.13-3.36.62-5.23,1.67-4.18s1.17,3.8.26,6.1c-1,2.54-1.77,1.78-1.93-1.92Zm73.15,0c-.14-3.36.61-5.23,1.67-4.18s1.17,3.8.25,6.1c-1,2.54-1.77,1.78-1.92-1.92Zm-190.81-3.18c-.14-3.36.61-5.23,1.67-4.18s1.17,3.8.25,6.1C347.18,529.85,346.42,529.09,346.27,525.39Zm3.18-19.08c-.14-3.36.61-5.23,1.67-4.18s1.17,3.8.25,6.1c-1,2.53-1.77,1.78-1.92-1.92Zm1828.61-38.16c-.14-3.36.61-5.23,1.67-4.18s1.17,3.8.25,6.1C2179,472.6,2178.21,471.85,2178.06,468.15ZM359,449.06c-.14-3.36.61-5.24,1.67-4.18s1.17,3.8.25,6.1c-1,2.53-1.77,1.78-1.92-1.92ZM362.13,430c-.14-3.35.61-5.23,1.67-4.17s1.17,3.8.25,6.1c-1,2.53-1.77,1.78-1.92-1.93Zm130.93-23.21a70.11,70.11,0,0,1,17.49,0c4.81.73.87,1.33-8.75,1.33S488.25,407.49,493.06,406.76Zm1195.11-11.94c5.61-5.61,40.66-11.08,71.6-11.17,18.88,0,24.15-1.32,33.22-8,5.92-4.37,11.21-7.95,11.74-7.95s1,7.16,1,15.9v15.9H1744.6c-53.75,0-60.54-.56-56.43-4.67Zm361.71-.28c4-2.79,17.18-5.76,30.12-6.78,17.53-1.38,25.53-3.66,33.39-9.51l10.34-7.7v28.94h-40.46c-37.55,0-40-.35-33.39-4.95ZM483.27,390c0-4.38.72-6.17,1.6-4a12.17,12.17,0,0,1,0,7.95C484,396.11,483.27,394.32,483.27,390Zm35.1-1.59c-.06-5.25.6-7.78,1.47-5.63s.92,6.45.11,9.54S518.43,393.6,518.37,388.36Zm-31.92-20.68c0-4.37.72-6.16,1.6-4a12.17,12.17,0,0,1,0,8c-.88,2.19-1.6.4-1.6-4Zm28.74-1.58c-.06-5.25.59-7.78,1.47-5.63s.92,6.45.11,9.54S515.25,371.34,515.19,366.1Zm-25.56-20.68c0-4.37.72-6.16,1.6-4a12.23,12.23,0,0,1,0,7.95C490.35,351.59,489.63,349.8,489.63,345.42ZM512,343.83c-.07-5.24.59-7.77,1.47-5.62s.92,6.44.11,9.54S512.07,349.08,512,343.83Zm-19.08-22.26c-.07-5.24.59-7.77,1.46-5.62s.93,6.44.12,9.54S493,326.82,492.93,321.57Zm15.9,0c-.06-5.24.59-7.77,1.47-5.62s.92,6.44.11,9.54S508.89,326.82,508.83,321.57Zm111.31-6.36c-.06-5.24.6-7.77,1.47-5.62s.92,6.44.11,9.54-1.51,1.33-1.58-3.92ZM496,300.9c0-4.37.72-6.16,1.6-4a12.17,12.17,0,0,1,0,7.95c-.88,2.19-1.6.4-1.6-4Zm9.54,0c0-4.37.72-6.16,1.6-4a12.17,12.17,0,0,1,0,7.95c-.88,2.19-1.6.4-1.6-4ZM617,296.13c-.06-5.24.6-7.77,1.47-5.62s.92,6.44.12,9.54S617,301.38,617,296.13Zm-3.18-19.08c-.06-5.24.6-7.78,1.47-5.62s.92,6.44.11,9.54S613.85,282.3,613.78,277.05Zm1091,5.59c11.8-.61,31.12-.61,42.93,0s2.15,1.12-21.46,1.12-33.28-.5-21.47-1.12ZM610.58,258c-.06-5.24.6-7.77,1.47-5.62s.92,6.44.11,9.54S610.65,263.22,610.58,258Zm-3.18-19.08c-.06-5.24.6-7.78,1.47-5.62s.92,6.44.11,9.54S607.47,244.14,607.4,238.89ZM394,236c-.14-3.36.61-5.23,1.67-4.18s1.17,3.8.25,6.1c-1,2.54-1.77,1.78-1.92-1.92Zm210.26-16.17c-.06-5.25.6-7.78,1.47-5.62s.92,6.44.11,9.54S604.29,225.06,604.22,219.81ZM397.14,216.9c-.14-3.36.61-5.23,1.67-4.18s1.17,3.8.25,6.1C398.05,221.35,397.29,220.6,397.14,216.9Zm1780.91-6.36c-.14-3.36.61-5.23,1.67-4.18s1.17,3.8.25,6.1C2179,215,2178.2,214.24,2178.05,210.54Zm-1577-9.8c-.06-5.25.6-7.78,1.47-5.63s.92,6.45.11,9.54-1.51,1.33-1.58-3.91Zm-200.72-2.92c-.14-3.35.61-5.23,1.67-4.17s1.17,3.8.25,6.09c-1,2.54-1.77,1.79-1.92-1.92Zm197.54-16.17c-.06-5.24.6-7.77,1.47-5.62s.92,6.45.12,9.54S597.93,186.9,597.86,181.65ZM403.5,178.74c-.14-3.35.61-5.23,1.67-4.17s1.17,3.8.25,6.09c-1,2.54-1.77,1.78-1.92-1.92Zm191.18-16.15c-.06-5.25.6-7.78,1.47-5.63s.92,6.45.12,9.54S594.75,167.84,594.68,162.59Zm-188-2.92c-.14-3.35.61-5.23,1.67-4.17s1.17,3.8.25,6.1C407.59,164.13,406.83,163.38,406.68,159.67Zm182.73-25.83c-1.23-9.84-1.57-18.56-.77-19.37s2.48,6.59,3.71,16.44,1.57,18.56.77,19.37-2.48-6.59-3.71-16.44Zm-179.55,6.75c-.14-3.35.61-5.23,1.67-4.17s1.17,3.8.25,6.09c-1,2.54-1.77,1.79-1.92-1.92ZM413,121.51c-.14-3.35.61-5.23,1.67-4.17s1.17,3.8.25,6.09C414,126,413.19,125.22,413,121.51ZM1689.75,123c-3.85-6.22,12.38-10.08,50.08-11.91,39.61-1.93,46.13-3.31,58.74-12.46l7.16-5.19V126h-57.06C1716.07,126,1690.82,124.72,1689.75,123Zm359.37,0c-2.63-4.26,19.09-9.67,38.87-9.7,13.86,0,17.9-1.37,23.63-8,9.76-11.23,12.13-10,12.13,6.36V126h-36.39c-20,0-37.22-1.36-38.24-3Zm129.56-16.07c0-7.88.62-11.1,1.38-7.16a45.19,45.19,0,0,1,0,14.31C2179.3,118,2178.68,114.81,2178.68,106.94ZM585.07,102.18c-.06-5.25.6-7.78,1.47-5.63s.92,6.45.12,9.54S585.14,107.42,585.07,102.18Zm-168.92.26c-.14-3.35.61-5.23,1.67-4.17s1.17,3.8.25,6.09C417.06,106.9,416.3,106.15,416.15,102.44ZM581.89,83.08c-.06-5.24.6-7.77,1.47-5.62s.92,6.44.12,9.54S582,88.33,581.89,83.08Zm-162.56.27c-.14-3.35.61-5.23,1.67-4.17s1.17,3.8.25,6.09c-1,2.54-1.77,1.78-1.92-1.92ZM578.71,64c-.06-5.24.6-7.78,1.47-5.62s.92,6.44.12,9.54S578.78,69.25,578.71,64Zm-156.2.27c-.14-3.36.61-5.23,1.67-4.18s1.17,3.8.25,6.1c-1,2.54-1.77,1.78-1.92-1.92Zm153-19.35c-.06-5.25.6-7.78,1.47-5.62s.92,6.44.12,9.54S575.6,50.17,575.53,44.92Zm-149.84.27c-.14-3.36.61-5.23,1.67-4.18s1.17,3.8.25,6.1C426.6,49.64,425.84,48.89,425.69,45.19ZM572.12,29A137.52,137.52,0,0,0,570,14.71l-1.64-8,3.41,7.8c1.87,4.29,2.82,10.73,2.11,14.31C572.63,35.21,572.59,35.22,572.12,29ZM428.87,26.11c-.14-3.36.61-5.24,1.67-4.18s1.17,3.8.25,6.1c-1,2.53-1.77,1.78-1.92-1.92ZM2177.78,16.3V5.17h33.92c18.66,0,33.17.76,32.24,1.69-2.47,2.47-15.07,5.25-29.41,6.49-6.9.59-16.5,4-21.34,7.58-12.31,9.1-15.41,8.17-15.41-4.63Zm89-8c0-1.75,4.29-3.18,9.54-3.18s9.54,1.43,9.54,3.18-4.29,3.18-9.54,3.18S2266.83,10.1,2266.83,8.35Z" transform="translate(-5.74 -4.97)"/><path class="cls-7" d="M605.22,680.22c51.43-1,66.65-5,69.06-18.14.66-3.62-10.65-78.13-25.14-165.58s-26-161.88-25.59-165.38c.86-7.3,53.53,310,54.94,331,.52,7.62,1.86,15.34,3,17.16,1.39,2.25-18,3.08-61,2.6-59.07-.66-60-.76-15.29-1.61Zm138.44-275.1c-.16-152.58-1.49-278.6-2.94-280s-20-2.2-41.25-1.65l-38.61,1V5.15h287.8l-.93,60.43L946.82,126H864.17l.91,278.27L866,682.54H744l-.3-277.41Zm104,257.4,7.14-6.5.81-270.58.81-270.58L888.26,113c37.29-2.16,41.06-3.47,46.28-16.07,6.15-14.83,1.76-66.42-6.21-73-5.19-4.3-23.23-5.4-121.67-7.45-63.57-1.32-118-2.36-121.07-2.31s-9.06,2.68-13.42,5.85c-7.71,5.62-7.92,6.83-8,46.25-.13,51.39-.43,51.08,50.38,50.39,28.19-.39,35,.41,36.45,4.31,1,2.64,1.16,123.67.34,269-1.06,185.86-.48,266.09,1.94,270.61,5.53,10.35,15.23,12.26,52.31,10.3,29.18-1.54,36.17-2.93,42.12-8.35ZM1052,404.27V126H969.36V5.15h286.22V126h-82.69V682.54H1151c-19.77,0-22.06-.66-23.69-6.88-1.52-5.79-2.58-6.24-6.7-2.82-2.69,2.24-4.11,5.33-3.15,6.88s-13.12,2.82-31.84,2.82H1052V404.27Zm94.23,263.47c6.66-1.11,11.18-4.36,13.67-9.82,2.76-6,3.59-77.21,3.22-275-.28-146.76.29-267.64,1.27-268.61s17.23-2.45,36.12-3.28c46-2,46.37-2.4,45-50.65-.58-19.6-2.25-36.83-3.72-38.29s-58.37-2.48-126.46-2.29c-114.39.31-124.28.77-130.11,6.06-5.59,5.05-6.31,9.84-6.31,41.68,0,43.26-.69,42.55,41.34,42.55,16,0,31.81,1.48,35.19,3.29,6,3.22,6.15,9.61,6.15,273,0,252.88.35,270,5.57,274.66a34.08,34.08,0,0,0,11.92,6.51c8.58,2.14,54.81,2.26,67.2.18ZM1284.2,559.57c0-67.63,1.08-121.9,2.39-120.59s3.1,51.2,4,110.87l1.59,108.49,9.54,5.39c8.22,4.63,23.06,5.58,106.55,6.81,53.34.79,101.29.57,106.54-.47,9.25-1.84,9.64-2.65,13.06-27.31l3.53-25.41.45,32.6.45,32.6H1284.2v-123Zm273.51,111.84c0-13.19,2.78-13.92,12.12-3.18,3.86,4.44,10.36,7.95,14.7,7.95s8.67,1.44,9.75,3.18c1.23,2-5.27,3.19-17.31,3.19H1557.7ZM556.5,657.09c0-4.37.72-6.16,1.6-4a12.3,12.3,0,0,1,0,8C557.22,663.26,556.5,661.47,556.5,657.09Zm-108-17.49c-.07-5.24.59-7.77,1.46-5.62s.93,6.44.12,9.54-1.52,1.33-1.58-3.92ZM553.55,638c0-6.12.65-8.62,1.45-5.56a26.11,26.11,0,0,1,0,11.13C554.2,646.64,553.55,644.14,553.55,638Zm-3.18-22.26c0-6.12.65-8.62,1.45-5.56a26.11,26.11,0,0,1,0,11.13c-.8,3.06-1.45.56-1.45-5.57Zm-98.82,0c0-4.37.72-6.16,1.6-4a12.3,12.3,0,0,1,0,8C452.27,621.91,451.55,620.13,451.55,615.75Zm95.64-22.26c0-6.12.65-8.62,1.45-5.56a26.11,26.11,0,0,1,0,11.13C547.84,602.12,547.19,599.61,547.19,593.49Zm-92.47,0c0-4.37.73-6.16,1.61-4a12.3,12.3,0,0,1,0,8C455.45,599.65,454.72,597.86,454.72,593.49ZM544,571.23c0-6.12.65-8.63,1.45-5.56a26.11,26.11,0,0,1,0,11.13C544.66,579.86,544,577.35,544,571.23Zm-86.1,0c0-4.37.72-6.16,1.6-4a12.3,12.3,0,0,1,0,8C458.63,577.39,457.91,575.6,457.91,571.23Zm1060.3,4c-1.32-1.32-28.39-2.39-60.16-2.39h-57.74l-.83-163c-.54-107.06.27-163,2.36-163s3.47,55.43,4,158.22l.83,158.22h125.62v7.16c0,7.12-8.71,10.07-14.07,4.77ZM461.11,549c0-4.38.72-6.17,1.6-4a12.3,12.3,0,0,1,0,8C461.83,555.13,461.11,553.34,461.11,549Zm79.62-1.59c-.07-5.25.6-7.78,1.47-5.63s.92,6.45.11,9.54-1.52,1.33-1.58-3.91ZM464,528.55c-.14-3.35.61-5.22,1.67-4.17s1.17,3.8.25,6.1C465,533,464.19,532.26,464,528.55Zm73.14,0c-.13-3.35.62-5.22,1.68-4.17s1.17,3.8.25,6.1C538.09,533,537.34,532.26,537.18,528.55Zm-190.81-3.17c-.13-3.36.62-5.23,1.67-4.18s1.17,3.8.26,6.1c-1,2.53-1.77,1.78-1.93-1.92Zm3.18-19.09c-.13-3.35.62-5.23,1.67-4.17s1.17,3.8.26,6.1C350.46,510.75,349.71,510,349.55,506.29Zm9.54-57.24c-.13-3.35.62-5.23,1.67-4.17s1.17,3.8.26,6.09c-1,2.54-1.77,1.79-1.93-1.92ZM362.27,430c-.13-3.35.62-5.23,1.67-4.18s1.17,3.8.26,6.1C363.18,434.43,362.43,433.67,362.27,430Zm922.09-216.3.17-208.52h120.61V123c0,84.47-1,117.25-3.48,115.71s-3.15-33.79-2.38-108.14c.7-67.91,0-107.13-2.09-109.16-1.75-1.75-11.77-3.47-22.26-3.82s-23-2.59-27.67-5c-10.73-5.37-12.09-5.36-12.09.07,0,2.93-5.37,4.88-16.36,5.93-30,2.88-28-11.56-28.09,208.16,0,126.16-1.17,192.1-3.3,193.42s-3.18-66-3.06-206.53v0ZM493.27,406.75a70.11,70.11,0,0,1,17.49,0c4.81.73.87,1.32-8.75,1.32S488.46,407.48,493.27,406.75ZM483.43,390c0-4.38.72-6.17,1.61-4a12.3,12.3,0,0,1,0,7.95C484.15,396.11,483.43,394.32,483.43,390Zm35.1-1.6c-.06-5.24.6-7.77,1.47-5.62s.92,6.45.12,9.54-1.52,1.33-1.59-3.92Zm-31.92-20.67c0-4.37.72-6.16,1.61-4a12.3,12.3,0,0,1,0,8c-.89,2.19-1.61.4-1.61-4Zm28.74-1.59c-.06-5.24.6-7.77,1.47-5.62s.92,6.44.12,9.54-1.52,1.33-1.59-3.92Zm-25.56-20.67c0-4.37.72-6.16,1.61-4a12.3,12.3,0,0,1,0,7.95C490.51,351.58,489.79,349.8,489.79,345.42Zm22.38-1.59c-.06-5.24.6-7.78,1.47-5.62s.92,6.44.12,9.54S512.24,349.08,512.17,343.83Zm-19.09-22.27c-.06-5.24.6-7.78,1.47-5.62s.92,6.44.12,9.54-1.52,1.33-1.59-3.92Zm15.9,0c-.06-5.24.6-7.78,1.47-5.62s.92,6.44.12,9.54-1.52,1.33-1.59-3.92Zm111.31-6.36c-.06-5.24.6-7.78,1.47-5.62s.92,6.44.12,9.54S620.36,320.45,620.29,315.2ZM496.14,300.89c0-4.37.72-6.16,1.61-4a12.3,12.3,0,0,1,0,7.95c-.89,2.18-1.61.39-1.61-4Zm9.54,0c0-4.37.72-6.16,1.61-4a12.3,12.3,0,0,1,0,7.95c-.89,2.18-1.61.39-1.61-4Zm111.43-4.77c-.06-5.24.6-7.78,1.47-5.62s.92,6.44.12,9.54-1.52,1.33-1.59-3.92ZM613.93,277c-.06-5.25.6-7.78,1.47-5.62s.92,6.44.12,9.54-1.52,1.33-1.59-3.92ZM610.75,258c-.06-5.25.6-7.78,1.47-5.63s.92,6.45.12,9.55-1.52,1.33-1.59-3.92Zm-3.18-19.08c-.06-5.25.6-7.78,1.47-5.63s.92,6.45.12,9.54S607.64,244.13,607.57,238.88ZM394.13,236c-.14-3.35.62-5.23,1.67-4.17s1.17,3.8.25,6.1c-1,2.53-1.77,1.78-1.92-1.93ZM604.39,219.8c-.06-5.25.6-7.78,1.47-5.63s.92,6.45.12,9.54S604.46,225.05,604.39,219.8Zm-207.08-2.92c-.14-3.35.61-5.23,1.67-4.17s1.17,3.8.25,6.09c-1,2.54-1.77,1.79-1.92-1.92Zm203.9-16.16c-.06-5.25.6-7.78,1.47-5.63s.92,6.45.12,9.54-1.52,1.33-1.59-3.91ZM400.49,197.8c-.14-3.35.62-5.23,1.67-4.17s1.17,3.8.25,6.09C401.4,202.26,400.64,201.51,400.49,197.8ZM598,181.64c-.06-5.25.6-7.78,1.47-5.63s.92,6.45.12,9.54S598.1,186.88,598,181.64Zm-194.36-2.92c-.14-3.35.62-5.23,1.67-4.17s1.17,3.8.25,6.09c-1,2.54-1.77,1.79-1.92-1.92Zm191.18-16.14c-.06-5.25.6-7.78,1.47-5.63s.92,6.45.12,9.54-1.52,1.34-1.59-3.91Zm-188-2.91c-.14-3.36.61-5.24,1.67-4.18s1.17,3.8.25,6.1c-1,2.53-1.77,1.78-1.92-1.92Zm182.73-25.83c-1.23-9.85-1.57-18.57-.77-19.38s2.48,6.59,3.71,16.44,1.57,18.57.77,19.37-2.48-6.59-3.71-16.43ZM410,140.58c-.14-3.35.62-5.23,1.67-4.17s1.17,3.8.25,6.1C410.94,145,410.18,144.29,410,140.58Zm3.18-19.08c-.14-3.35.62-5.23,1.67-4.17s1.17,3.8.25,6.09c-1,2.54-1.77,1.79-1.92-1.92Zm172.1-19.34c-.06-5.25.6-7.78,1.47-5.63s.92,6.45.12,9.54S585.38,107.4,585.31,102.16Zm-168.92.26c-.14-3.35.62-5.23,1.67-4.17s1.17,3.8.25,6.09C417.3,106.88,416.54,106.13,416.39,102.42ZM582.13,83.08c-.06-5.25.6-7.78,1.47-5.63s.92,6.45.12,9.54S582.2,88.32,582.13,83.08Zm-162.56.26c-.14-3.35.62-5.23,1.67-4.17s1.17,3.8.25,6.09c-1,2.54-1.77,1.79-1.92-1.92ZM579,64c-.06-5.24.6-7.77,1.47-5.62s.92,6.44.12,9.54S579,69.24,579,64Zm-156.2.27c-.14-3.35.62-5.23,1.67-4.17s1.17,3.8.25,6.09c-1,2.54-1.77,1.78-1.92-1.92Zm153-19.35c-.06-5.24.6-7.78,1.47-5.62s.92,6.44.12,9.54S575.84,50.16,575.77,44.91Zm-149.84.27c-.14-3.36.62-5.23,1.67-4.18s1.17,3.8.25,6.1C426.84,49.64,426.08,48.88,425.93,45.18ZM572.36,29a137.52,137.52,0,0,0-2.11-14.31l-1.64-7.95,3.41,7.8c1.87,4.29,2.82,10.73,2.11,14.31C572.87,35.2,572.83,35.21,572.36,29ZM429.11,26.1c-.14-3.36.62-5.23,1.67-4.18s1.17,3.8.25,6.1c-1,2.53-1.77,1.78-1.92-1.92Zm1128.81-7.42c-.09-12.33.6-13.52,7.85-13.52,4.37,0,8,1.43,8,3.18a3.19,3.19,0,0,1-3.18,3.18c-1.75,0-3.18,1.87-3.18,4.16s-2.1,6.94-4.67,10.34C1558.35,31.76,1558,31.25,1557.92,18.68Z" transform="translate(-5.74 -4.97)"/></svg>